<svg width="900" height="500" viewBox="0 0 900 500" xmlns="http://www.w3.org/2000/svg"><title>iPad Landscape</title><defs><linearGradient x1="50%" y1="0%" x2="50%" y2="100%" id="b"><stop stop-color="#B4ED50" offset="0%"/><stop stop-color="#429321" offset="100%"/></linearGradient><linearGradient x1="50%" y1="34.882%" x2="50%" y2="100%" id="a"><stop stop-opacity="0" offset="0%"/><stop offset="100%"/></linearGradient><filter x="-50%" y="-50%" width="200%" height="200%" filterUnits="objectBoundingBox" id="c"><feOffset dy="2" in="SourceAlpha" result="shadowOffsetOuter1"/><feGaussianBlur stdDeviation="2" in="shadowOffsetOuter1" result="shadowBlurOuter1"/><feColorMatrix values="0 0 0 0 0 0 0 0 0 0 0 0 0 0 0 0 0 0 0.35 0" in="shadowBlurOuter1" result="shadowMatrixOuter1"/><feMerge><feMergeNode in="shadowMatrixOuter1"/><feMergeNode in="SourceGraphic"/></feMerge></filter></defs><g fill="none" fill-rule="evenodd"><path fill="#144400" d="M745.14 70.584l81.466 399.277L745.14 370.3l-81.466 99.563"/><text font-family="Avenir Next Condensed" font-size="72" font-style="condensed" font-weight="bold" fill="#144400"><tspan x="20.253" y="90">Monster Positioning System</tspan></text><text font-family="Avenir Next Condensed" font-size="18" font-style="condensed" font-weight="526" fill="#144400"><tspan x="20" y="134">Your monster buddies are trapped on the subway. </tspan> <tspan x="20" y="159">Help get them through the portals to safety!</tspan>        <tspan x="20" y="359">Avoid the medling humans! </tspan> <tspan x="20" y="384">They’re good for nothing but getting in a monster’s way.</tspan>  <tspan x="20" y="434">You can move each of your monsters one station per turn.</tspan>  <tspan x="20" y="484">Once 5 monsters have reached the portal, they’ll be able to teleport the others to safety.</tspan></text><path d="M160.5 264H233M233 264l-10.8-3v6l10.8-3z" stroke="#78B7FF" stroke-width="8" stroke-linecap="square"/><ellipse stroke="url(#a)" fill="url(#b)" filter="url(#c)" cx="320.5" cy="266.5" rx="57.5" ry="82.5"/><g transform="translate(35 205)" stroke="#144400" stroke-width="6.667" fill="#4CFF00"><rect transform="matrix(-1 0 0 1 61 0)" x="14" y="39" width="33" height="80" rx="13.333"/><rect transform="matrix(-1 0 0 1 148 0)" x="57.5" y="30.5" width="33" height="80" rx="13.333"/><rect transform="matrix(-1 0 0 1 101 0)" x=".5" y=".5" width="100" height="80" rx="13.333"/><circle transform="matrix(-1 0 0 1 161 0)" cx="80.5" cy="40.5" r="10"/><circle transform="matrix(-1 0 0 1 121 0)" cx="60.5" cy="47.5" r="10"/></g></g></svg>