<svg width="1500" height="833" viewBox="0 0 1500 833" xmlns="http://www.w3.org/2000/svg"><title>iPad Landscape</title><defs><linearGradient x1="50%" y1="0%" x2="50%" y2="100%" id="b"><stop stop-color="#B4ED50" offset="0%"/><stop stop-color="#429321" offset="100%"/></linearGradient><linearGradient x1="50%" y1="34.882%" x2="50%" y2="100%" id="a"><stop stop-opacity="0" offset="0%"/><stop offset="100%"/></linearGradient><filter x="-50%" y="-50%" width="200%" height="200%" filterUnits="objectBoundingBox" id="c"><feOffset dy="3" in="SourceAlpha" result="shadowOffsetOuter1"/><feGaussianBlur stdDeviation="3.5" in="shadowOffsetOuter1" result="shadowBlurOuter1"/><feColorMatrix values="0 0 0 0 0 0 0 0 0 0 0 0 0 0 0 0 0 0 0.35 0" in="shadowBlurOuter1" result="shadowMatrixOuter1"/><feMerge><feMergeNode in="shadowMatrixOuter1"/><feMergeNode in="SourceGraphic"/></feMerge></filter></defs><g fill="none" fill-rule="evenodd"><path fill="#144400" d="M1280.364 93.084l138.385 677.53-138.386-168.948-138.386 168.948"/><text font-family="Avenir Next Condensed" font-size="122.269" font-style="condensed" font-weight="bold" fill="#144400"><tspan x="49" y="126">Monster Positioning System</tspan></text><text font-family="Avenir Next Condensed" font-size="30.567" font-style="condensed" font-weight="526" fill="#144400"><tspan x="49" y="201">Your monster buddies are trapped on the subway. </tspan> <tspan x="49" y="243">Help get them through the portals to safety!</tspan>        <tspan x="49" y="579">Avoid the medling humans! </tspan> <tspan x="49" y="621">They’re good for nothing but getting in a monster’s way.</tspan>  <tspan x="49" y="705">You can move each of your monsters one station per turn.</tspan>  <tspan x="49" y="789">Once 5 monsters have reached the portal, they’ll be able to teleport the others to safety.</tspan></text><path d="M287.85 421.5H411M411 421.5l-10.8-3v6l10.8-3z" stroke="#78B7FF" stroke-width="13.585" stroke-linecap="square"/><ellipse stroke="url(#a)" stroke-width="1.698" fill="url(#b)" filter="url(#c)" cx="559.5" cy="426" rx="97.5" ry="140"/><g transform="translate(74 321)" stroke="#144400" stroke-width="11.321" fill="#4CFF00"><rect transform="matrix(-1 0 0 1 103.88 0)" x="23.842" y="66.202" width="56.198" height="135.798" rx="22.642"/><rect transform="matrix(-1 0 0 1 252.04 0)" x="97.921" y="51.773" width="56.198" height="135.798" rx="22.642"/><rect transform="matrix(-1 0 0 1 172 0)" x=".851" y=".849" width="170.297" height="135.798" rx="22.642"/><ellipse transform="matrix(-1 0 0 1 274.178 0)" cx="137.089" cy="68.748" rx="17.03" ry="16.975"/><ellipse transform="matrix(-1 0 0 1 206.06 0)" cx="103.03" cy="80.63" rx="17.03" ry="16.975"/></g></g></svg>